<svg width="100" height="101" xmlns="http://www.w3.org/2000/svg">

 <g>
  <title>background</title>
  <rect fill="none" id="canvas_background" height="103" width="102" y="-1" x="-1"/>
 </g>
 <g>
  <title>Layer 1</title>
  <g id="svg_1">
   <rect id="svg_2" height="99" width="185" x="-192"/>
   <rect id="svg_3" height="30" width="100" y="-36"/>
   <text id="svg_4" font-size="2.4" font-family="'Helvetica'" fill="#000000" transform="matrix(1,0,0,1,66,-19.5) ">http://thenounproject.com</text>
   <text id="svg_5" transform="matrix(1,0,0,1,7.166,-24.5) ">
    <tspan id="svg_6" font-size="6.1578" font-family="'Helvetica-Bold'" fill="#000000" y="0" x="0">The Noun Project</tspan>
    <tspan id="svg_7" font-size="4" font-family="'Helvetica-Bold'" fill="#000000" y="4.8" x="1.12">Icon Template</tspan>
   </text>
   <text id="svg_8" font-size="6.1578" font-family="'Helvetica-Bold'" fill="#000000" transform="matrix(1,0,0,1,-178.5,10.5) ">Reminders</text>
   <line id="svg_9" y2="-14.5" x2="18" y1="-14.5" x1="8" stroke-miterlimit="10" stroke="#FFFFFF" fill="#000000"/>
   <line id="svg_10" y2="16.5" x2="-162" y1="16.5" x1="-179" stroke-miterlimit="10" stroke="#FFFFFF" fill="#000000"/>
   <g id="svg_11">
    <g id="svg_12">
     <g id="svg_13">
      <rect id="svg_14" height="8.642" width="8.721" fill="#000000" y="31.318" x="-170.802"/>
      <path id="svg_15" d="m-164.455,42.312l4.747,0l0,-4.703l-4.747,0l0,4.703zm5.189,0.437l-5.63,0l0,-5.579l5.63,0l0,5.579l0,0zm-6.955,1.313l8.279,0l0,-8.203l-8.279,0l0,8.203l0,0zm8.721,0.438l-9.163,0l0,-9.079l9.163,0l0,9.079l0,0z" fill="#000000"/>
      <polygon id="svg_16" points="-166.149,44.133 -166.292,43.991 -158.013,35.787 -157.871,35.929     " fill="#000000"/>
     </g>
    </g>
   </g>
   <rect id="svg_17" height="32.5" width="35" fill="none" y="58" x="-179"/>
   <text id="svg_18" transform="matrix(1,0,0,1,-179,60.1572) ">
    <tspan id="svg_19" font-size="3" font-family="'Helvetica-Bold'" fill="#000000" y="0" x="0">Strokes</tspan>
    <tspan id="svg_20" font-size="2.4" font-family="'Helvetica'" fill="#000000" y="5" x="0">Try to keep strokes at 4px</tspan>
    <tspan id="svg_21" font-size="2.4" font-family="'Helvetica'" fill="#000000" y="10" x="0">Minimum stroke weight is 2px</tspan>
    <tspan id="svg_22" font-size="2.4" font-family="'Helvetica'" fill="#000000" y="14.5" x="0">For thicker strokes use even</tspan>
    <tspan id="svg_23" font-size="2.4" font-family="'Helvetica'" fill="#000000" y="17.5" x="0">numbers: 6px, 8px etc.</tspan>
    <tspan id="svg_24" font-size="2.4" font-family="'Helvetica-Bold'" fill="#000000" y="22" x="0">Remember to expand strokes</tspan>
    <tspan id="svg_25" font-size="2.4" font-family="'Helvetica-Bold'" fill="#000000" y="25" x="0">before saving as an SVG</tspan>
   </text>
   <rect id="svg_26" height="32.5" width="35" fill="none" y="58" x="-136.5"/>
   <text id="svg_27" transform="matrix(1,0,0,1,-136.5,60.1572) ">
    <tspan id="svg_28" font-size="3" font-family="'Helvetica-Bold'" fill="#000000" y="0" x="0">Size</tspan>
    <tspan id="svg_29" font-size="2.4" font-family="'Helvetica'" fill="#000000" y="5" x="0">Cannot be wider or taller than</tspan>
    <tspan id="svg_30" font-size="2.4" font-family="'Helvetica'" fill="#000000" y="8.5" x="0">100px (artboard size)</tspan>
    <tspan id="svg_31" font-size="2.4" font-family="'Helvetica'" fill="#000000" y="13.5" x="0">Scale your icon to fill as much of</tspan>
    <tspan id="svg_32" font-size="2.4" font-family="'Helvetica'" fill="#000000" y="16.5" x="0">the artboard as possible</tspan>
   </text>
   <rect id="svg_33" height="32.5" width="35" fill="none" y="58" x="-94"/>
   <text id="svg_34" transform="matrix(1,0,0,1,-94,60.1572) ">
    <tspan id="svg_35" font-size="3" font-family="'Helvetica-Bold'" fill="#000000" y="0" x="0">Ungroup</tspan>
    <tspan id="svg_36" font-size="2.4" font-family="'Helvetica'" fill="#000000" y="5" x="0">If your design has more than one</tspan>
    <tspan id="svg_37" font-size="2.4" font-family="'Helvetica'" fill="#000000" y="8" x="0">shape, make sure to ungroup</tspan>
   </text>
   <rect id="svg_38" height="32.5" width="35" fill="none" y="58" x="-50"/>
   <text id="svg_39" transform="matrix(1,0,0,1,-50,60.1572) ">
    <tspan id="svg_40" font-size="3" font-family="'Helvetica-Bold'" fill="#000000" y="0" x="0">Save as</tspan>
    <tspan id="svg_41" font-size="2.4" font-family="'Helvetica'" fill="#000000" y="5" x="0">Save as .SVG and make sure</tspan>
    <tspan id="svg_42" font-size="2.4" font-family="'Helvetica'" fill="#000000" y="8" x="0">“Use Artboards” is checked</tspan>
   </text>
   <text id="svg_43" font-size="2.5731" font-family="'Helvetica'" fill="#000000" transform="matrix(1.0074,0,0,1,-125.542,30.5933) ">100px</text>
   <text id="svg_44" font-size="5.1462" font-family="'Helvetica-Bold'" fill="#000000" transform="matrix(1.0074,0,0,1,-41,39) ">.SVG</text>
   <rect id="svg_45" height="10.185" width="10.261" fill="#000000" y="34.815" x="-126.514"/>
   <rect id="svg_46" height="2.337" width="0.522" fill="#000000" y="31.766" x="-126.477"/>
   <rect id="svg_47" height="2.337" width="0.523" fill="#000000" y="31.766" x="-116.812"/>
   <rect id="svg_48" height="0.572" width="11.233" fill="#000000" y="32.337" x="-127"/>
   <g id="svg_49">
    <rect id="svg_50" height="10.156" width="10.305" fill="#000000" y="33.844" x="-83.805"/>
    <rect id="svg_51" height="3.261" width="3.308" fill="#000000" y="28.707" x="-76.809"/>
   </g>
   <rect id="svg_52" height="30" width="30" stroke-miterlimit="10" stroke="#FFFFFF" fill="#000000" y="22.5" x="-178.5"/>
   <rect id="svg_53" height="30" width="30" stroke-miterlimit="10" stroke="#FFFFFF" fill="#000000" y="22.5" x="-136.5"/>
   <rect id="svg_54" height="30" width="30" stroke-miterlimit="10" stroke="#FFFFFF" fill="#000000" y="22.5" x="-93.5"/>
   <rect id="svg_55" height="30" width="30" stroke-miterlimit="10" stroke="#FFFFFF" fill="#000000" y="22.5" x="-49.5"/>
  </g>
  <g id="svg_56">
   <g id="svg_57">
    <g id="svg_58">
     <g id="svg_59">
      <path id="svg_60" d="m85.405,30l-70.34,0c-7.216,0 -13.065,6.191 -13.065,13.556l0,37.444l96,0l0,-37.444c0,-7.365 -5.378,-13.556 -12.595,-13.556zm-56.791,30.425c-4.749,0 -8.598,-3.929 -8.598,-8.775c0,-4.846 3.849,-8.776 8.598,-8.776s8.597,3.93 8.597,8.776c0,4.846 -3.848,8.775 -8.597,8.775zm43.971,0c-4.748,0 -8.598,-3.929 -8.598,-8.775c0,-4.846 3.85,-8.776 8.598,-8.776c4.747,0 8.597,3.93 8.597,8.776c0,4.846 -3.85,8.775 -8.597,8.775z" clip-rule="evenodd" fill-rule="evenodd"/>
     </g>
    </g>
   </g>
   <g id="svg_61">
    <g id="svg_62">
     <g id="svg_63">
      <path id="svg_64" d="m20.169,84.443l59.396,0c1.704,0 3.083,1.409 3.083,3.147c0,1.739 -1.379,3.148 -3.083,3.148l-59.396,0c-1.703,0 -3.084,-1.409 -3.084,-3.148c0,-1.737 1.381,-3.147 3.084,-3.147z" clip-rule="evenodd" fill-rule="evenodd"/>
     </g>
    </g>
   </g>
   <g id="svg_65">
    <g id="svg_66">
     <g id="svg_67">
      <path id="svg_68" d="m30.213,93.649l39.84,0c1.704,0 3.084,1.41 3.084,3.149s-1.38,3.147 -3.084,3.147l-39.84,0c-1.703,0 -3.084,-1.408 -3.084,-3.147s1.381,-3.149 3.084,-3.149z" clip-rule="evenodd" fill-rule="evenodd"/>
     </g>
    </g>
   </g>
   <g id="svg_69">
    <g id="svg_70">
     <g id="svg_71">
      <path id="svg_72" d="m57.212,6.41c0,-3.54 -2.721,-6.41 -6.19,-6.41c-3.466,0 -6.021,2.87 -6.021,6.41c0,2.201 0.999,4.142 2.999,5.296l0,10.907c0,1.869 1.171,3.383 3,3.383c1.831,0 3,-1.514 3,-3.383l0,-10.725c2,-1.124 3.212,-3.153 3.212,-5.478z" clip-rule="evenodd" fill-rule="evenodd"/>
     </g>
    </g>
   </g>
  </g>
 </g>
</svg>